# xmcd
#
# Track frame offsets: 
#        150
#        19485
#        38789
#        53472
#        71080
#        90190
#        122713
#        142717
#        157145
#        173877
#
# Disc length: 2791 seconds
#
# Revision: 0
# Processed by: cddbd v1.5.2PL0 Copyright (c) Steve Scherf et al.
# Submitted via: ExactAudioCopy v0.99pb5
#
DISCID=7c0ae50a
DTITLE=Rivermaya - Free
DYEAR=2000
DGENRE=Rock
TTITLE0=Faithless
TTITLE1=Serious Offender
TTITLE2=Again
TTITLE3=Stranded
TTITLE4=Imbecillesque
TTITLE5=Ambulansya
TTITLE6=Straight No Chaser
TTITLE7=Its Strange But Its True
TTITLE8=Tulog
TTITLE9=Steady
EXTD=
EXTT0=
EXTT1=
EXTT2=
EXTT3=
EXTT4=
EXTT5=
EXTT6=
EXTT7=
EXTT8=
EXTT9=
PLAYORDER=
